<svg width="210" height="73" viewBox="0 0 210 73" fill="none" xmlns="http://www.w3.org/2000/svg"><path d="M0 18.3906V2.45996H4.26391V18.1384C4.26391 21.8937 6.79304 24.3702 10.3722 24.3702C13.9513 24.3702 16.4622 21.8937 16.4622 18.1384V2.45996H20.7261V18.3906C20.7261 24.2621 16.2978 28.3956 10.3813 28.3956C4.46478 28.3956 0.00913235 24.2621 0.00913235 18.3906H0Z" fill="#39C47F"></path><path d="M35.9099 7.7998C41.872 7.7998 46.2272 12.1855 46.2272 18.102C46.2272 24.0186 41.872 28.4133 35.9099 28.4133C33.3351 28.4133 31.0433 27.5307 29.2994 26.0358V34.9692H25.209V8.28611H27.9664L28.7333 10.6996C30.532 8.88947 33.0429 7.80882 35.9099 7.80882V7.7998ZM42.0912 18.093C42.0912 14.3918 39.352 11.6542 35.5994 11.6542C31.8468 11.6542 29.0803 14.4188 29.0803 18.093C29.0803 21.7673 31.8468 24.5319 35.5994 24.5319C39.352 24.5319 42.0912 21.7943 42.0912 18.093Z" fill="#39C47F"></path><path d="M18.9094 50.8004C19.4754 50.134 20.0872 49.4226 20.7263 48.7021V39.4355H16.4624V53.5651C17.2202 52.7546 18.0237 51.836 18.9094 50.8004Z" fill="#1B4533"></path><path d="M46.2365 55.0782C46.2365 60.9588 41.8722 65.3714 35.9191 65.3714C33.3352 65.3714 31.0526 64.4979 29.2996 62.994V71.9274H25.2091V61.6882C25.9396 60.8867 26.6335 60.0582 27.3 59.2747L27.4461 59.1036C28.1309 58.3021 28.7426 57.5817 29.3543 56.9153C30.1122 59.6259 32.5135 61.4991 35.5904 61.4991C39.3522 61.4991 42.0913 58.7614 42.0913 55.0512C42.0913 51.3409 39.4709 48.7744 35.8552 48.6393V48.6213C31.0435 48.6213 27.9574 52.3586 24.6248 56.2939C21.0365 60.5175 16.9735 65.3714 10.363 65.3714V65.3534C4.42826 65.3534 0 61.2199 0 55.3574V39.4268H4.26391V55.1052C4.26391 58.8605 6.78391 61.337 10.3539 61.346C15.1109 61.346 18.2517 57.6988 21.5752 53.7904C25.1726 49.5489 29.2357 44.794 35.8826 44.776H35.91V44.758C41.863 44.758 46.2274 49.1526 46.2274 55.0692L46.2365 55.0782Z" fill="#1B4533"></path><path d="M60.8269 8.16916V11.9785H58.6631C55.2757 11.9785 53.5865 13.8786 53.5865 17.4358V27.9091H49.4961V8.26822H52.2626L52.9565 10.9518C54.3809 9.08772 56.3347 8.16016 59.0556 8.16016H60.8269V8.16916Z" fill="#39C47F"></path><path d="M82.1922 8.26809V27.9089H78.8961L78.4944 25.5225C76.6957 27.3236 74.1757 28.3952 71.2722 28.3952C65.3374 28.3952 60.9092 23.9736 60.9092 18.084C60.9092 12.1945 65.3466 7.7998 71.2722 7.7998C74.2122 7.7998 76.7504 8.88946 78.5582 10.7266L79.0331 8.26809H82.1922ZM78.0927 18.084C78.0927 14.3828 75.3535 11.6451 71.6009 11.6451C67.8483 11.6451 65.0818 14.4098 65.0818 18.084C65.0818 21.7582 67.8483 24.5319 71.6009 24.5319C75.3535 24.5319 78.0927 21.7943 78.0927 18.084Z" fill="#39C47F"></path><path d="M104.763 8.27734L96.582 27.9182H92.8293L84.4385 8.27734H88.748L94.7102 22.8481L100.554 8.27734H104.763Z" fill="#39C47F"></path><path d="M107.082 1.23535H111.172V27.9095H107.082V1.23535Z" fill="#39C47F"></path><path d="M111.4 31.2587H112.825C115.107 31.2587 116.34 30.016 116.34 27.7646V8.27683H120.43V28.0708C120.43 32.1592 117.6 34.9509 113.427 34.9509H111.4V31.2587ZM116.294 1.06348H120.522V5.22398H116.294V1.06348Z" fill="#39C47F"></path><path d="M144.973 8.26809V27.9089H141.677L141.275 25.5225C139.476 27.3236 136.956 28.3952 134.053 28.3952C128.118 28.3952 123.69 23.9736 123.69 18.084C123.69 12.1945 128.127 7.7998 134.053 7.7998C136.993 7.7998 139.531 8.88946 141.339 10.7266L141.814 8.26809H144.973ZM140.873 18.084C140.873 14.3828 138.134 11.6451 134.382 11.6451C130.629 11.6451 127.863 14.4098 127.863 18.084C127.863 21.7582 130.629 24.5319 134.382 24.5319C138.134 24.5319 140.873 21.7943 140.873 18.084Z" fill="#39C47F"></path><path d="M145.201 31.2587H146.626C148.908 31.2587 150.141 30.016 150.141 27.7646V8.27683H154.231V28.0708C154.231 32.1592 151.401 34.9509 147.228 34.9509H145.201V31.2587ZM150.104 1.06348H154.332V5.22398H150.104V1.06348Z" fill="#39C47F"></path><path d="M60.8269 45.1457V48.955H58.6631C55.2757 48.955 53.5865 50.8552 53.5865 54.4123V64.8856H49.4961V45.2448H52.2626L52.9565 47.9284C54.3809 46.0643 56.3347 45.1367 59.0556 45.1367H60.8269V45.1457Z" fill="#1B4533"></path><path d="M82.1922 45.2447V64.8855H78.8961L78.4944 62.4991C76.6957 64.3002 74.1757 65.3718 71.2722 65.3718C65.3374 65.3718 60.9092 60.9501 60.9092 55.0606C60.9092 49.171 65.3466 44.7764 71.2722 44.7764C74.2122 44.7764 76.7504 45.866 78.5582 47.7031L79.0331 45.2447H82.1922ZM78.0927 55.0606C78.0927 51.3593 75.3535 48.6217 71.6009 48.6217C67.8483 48.6217 65.0818 51.3864 65.0818 55.0606C65.0818 58.7348 67.8483 61.5085 71.6009 61.5085C75.3535 61.5085 78.0927 58.7708 78.0927 55.0606Z" fill="#1B4533"></path><path d="M104.763 45.2539L96.582 64.8948H92.8293L84.4385 45.2539H88.748L94.7102 59.8247L100.554 45.2539H104.763Z" fill="#1B4533"></path><path d="M117.627 44.8127C122.284 44.8127 125.187 48.2348 125.187 53.0707V64.8948H121.097V53.8902C121.097 50.324 119.526 48.4239 116.532 48.4239C113.537 48.4239 111.181 50.9094 111.181 54.3765V64.8948H107.091V45.254H109.949L110.743 47.9916C112.25 46.0104 114.706 44.8037 117.636 44.8037L117.627 44.8127Z" fill="#1B4533"></path><path d="M129.579 38.0488H133.806V42.2093H129.579V38.0488ZM129.652 45.2532H133.743V64.894H129.652V45.2532Z" fill="#1B4533"></path><path d="M145.439 56.5197H142.955V64.8948H138.865V38.2207H142.955V52.8545H145.466L150.844 45.263H155.692L148.954 54.6916L156.413 64.9038H151.41L145.439 56.5288V56.5197Z" fill="#1B4533"></path><path d="M166.813 65.3716C160.723 65.3716 156.167 60.9769 156.167 55.0784C156.167 49.1798 160.723 44.7852 166.813 44.7852C172.903 44.7852 177.459 49.1708 177.459 55.0874C177.459 61.0039 172.894 65.3806 166.813 65.3806V65.3716ZM173.296 55.0694C173.296 51.3141 170.584 48.6305 166.813 48.6305C163.042 48.6305 160.33 51.3141 160.33 55.0694C160.33 58.8246 163.042 61.5082 166.813 61.5082C170.584 61.5082 173.296 58.8246 173.296 55.0694Z" fill="#1B4533"></path><path d="M210 52.4035V64.8941H205.909V53.3941C205.909 50.2332 204.513 48.4231 202.038 48.4231C199.399 48.4231 197.373 50.8096 197.373 54.1506V64.8851H193.373V53.3851C193.373 50.2242 191.986 48.4141 189.493 48.4141C186.845 48.4141 184.8 50.8006 184.8 54.1416V64.8761H180.709V45.2352H183.613L184.316 47.7747C185.813 45.9286 188.087 44.7939 190.497 44.7939C193.2 44.7939 195.336 46.0997 196.469 48.234C197.92 46.1177 200.34 44.7939 202.969 44.7939C207.169 44.7939 210 47.9458 210 52.3945V52.4035Z" fill="#1B4533"></path></svg>